<?xml version="1.0" encoding="utf-8"?>
<!DOCTYPE svg PUBLIC "-//W3C//DTD SVG 1.1 Tiny//EN" "http://www.w3.org/Graphics/SVG/1.1/DTD/svg11-tiny.dtd">
<svg version="1.1" baseProfile="tiny" id="Layer_1" xmlns="http://www.w3.org/2000/svg" xmlns:xlink="http://www.w3.org/1999/xlink"
	 x="0px" y="0px" width="307.8px" height="230.9px" viewBox="0 0 307.8 230.9" xml:space="preserve">
<polygon fill="#FFFFFF" points="55.4,200.9 85,171.3 101.7,188 101.7,129.1 42.8,129.1 59.6,145.9 30,175.4 "/>
<polygon fill="#FFFFFF" points="30,55.4 59.6,85 42.8,101.7 101.7,101.7 101.7,42.8 85,59.6 55.4,30 "/>
<polygon fill="#FFFFFF" points="277.8,175.4 248.2,145.9 265,129.1 206.1,129.1 206.1,188 222.8,171.3 252.4,200.9 "/>
<polygon fill="#FFFFFF" points="252.4,30 222.8,59.6 206.1,42.8 206.1,101.7 265,101.7 248.2,85 277.8,55.4 "/>
<polygon fill="#FFFFFF" points="10,61.3 10,10 61.3,10 61.3,0 0,0 0,61.3 "/>
<polygon fill="#FFFFFF" points="246.5,10 297.8,10 297.8,61.3 307.8,61.3 307.8,0 246.5,0 "/>
<polygon fill="#FFFFFF" points="297.8,169.3 297.8,220.9 246.5,220.9 246.5,230.9 307.8,230.9 307.8,169.3 "/>
<polygon fill="#FFFFFF" points="61.3,220.9 10,220.9 10,169.3 0,169.3 0,230.9 61.3,230.9 "/>
</svg>
