<?xml version="1.0" encoding="utf-8"?>
<!-- Generator: Adobe Illustrator 17.1.0, SVG Export Plug-In . SVG Version: 6.00 Build 0)  -->
<!DOCTYPE svg PUBLIC "-//W3C//DTD SVG 1.1 Tiny//EN" "http://www.w3.org/Graphics/SVG/1.1/DTD/svg11-tiny.dtd">
<svg version="1.1" baseProfile="tiny" id="Layer_1" xmlns="http://www.w3.org/2000/svg" xmlns:xlink="http://www.w3.org/1999/xlink"
	 x="0px" y="0px" viewBox="0 0 307.8 230.9" xml:space="preserve">
<polygon fill="#FFFFFF" points="76.3,129.1 46.7,158.7 30,142 30,200.9 88.9,200.9 72.2,184.1 101.7,154.6 "/>
<polygon fill="#FFFFFF" points="101.7,76.3 72.2,46.7 88.9,30 30,30 30,88.9 46.7,72.2 76.3,101.7 "/>
<polygon fill="#FFFFFF" points="206.1,154.6 235.6,184.1 218.9,200.9 277.8,200.9 277.8,142 261.1,158.7 231.5,129.1 "/>
<polygon fill="#FFFFFF" points="231.5,101.7 261.1,72.2 277.8,88.9 277.8,30 218.9,30 235.6,46.7 206.1,76.3 "/>
<polygon fill="#FFFFFF" points="10,61.3 10,10 61.3,10 61.3,0 0,0 0,61.3 "/>
<polygon fill="#FFFFFF" points="246.5,10 297.8,10 297.8,61.3 307.8,61.3 307.8,0 246.5,0 "/>
<polygon fill="#FFFFFF" points="297.8,169.3 297.8,220.9 246.5,220.9 246.5,230.9 307.8,230.9 307.8,169.3 "/>
<polygon fill="#FFFFFF" points="61.3,220.9 10,220.9 10,169.3 0,169.3 0,230.9 61.3,230.9 "/>
</svg>
