<?xml version="1.0" encoding="utf-8"?>
<!-- Generator: Adobe Illustrator 17.1.0, SVG Export Plug-In . SVG Version: 6.00 Build 0)  -->
<!DOCTYPE svg PUBLIC "-//W3C//DTD SVG 1.1 Tiny//EN" "http://www.w3.org/Graphics/SVG/1.1/DTD/svg11-tiny.dtd">
<svg version="1.1" baseProfile="tiny"
	 xmlns="http://www.w3.org/2000/svg" xmlns:xlink="http://www.w3.org/1999/xlink" x="0px" y="0px" viewBox="0 163.4 1190.6 515.1"
	 xml:space="preserve">
<rect x="30.4" y="241.6" fill="#494949" width="1128.8" height="404.6"/>
<path fill="#939598" d="M319.9,419.4h-62.7v-62.7c0-2.5-2-4.5-4.5-4.5h-87.8c-2.5,0-4.5,2-4.5,4.5v62.7H97.6c-2.5,0-4.5,2-4.5,4.5
	v87.8c0,2.5,2,4.5,4.5,4.5h62.7V579c0,2.5,2,4.5,4.5,4.5h87.8c2.5,0,4.5-2,4.5-4.5v-62.7h62.7c2.5,0,4.5-2,4.5-4.5v-87.8
	C324.5,421.4,322.4,419.4,319.9,419.4z"/>
<g>
	<path fill="#BCBEC0" d="M901.5,586.3c0,2.5-2,4.5-4.5,4.5H774.5c-2.5,0-4.5-2-4.5-4.5V463.9c0-2.5,2-4.5,4.5-4.5H897
		c2.5,0,4.5,2,4.5,4.5L901.5,586.3L901.5,586.3z"/>
	<circle id="b" fill="#EF4136" cx="835.8" cy="525.2" r="51.9"/>
</g>
<g>
	<path fill="#BCBEC0" d="M1057.6,586.3c0,2.5-2,4.5-4.5,4.5H930.6c-2.5,0-4.5-2-4.5-4.5V463.9c0-2.5,2-4.5,4.5-4.5h122.4
		c2.5,0,4.5,2,4.5,4.5V586.3z"/>
	<circle id="a" fill="#EF4136" cx="991.9" cy="525.2" r="51.9"/>
</g>
<path fill="#262626" d="M311.1,428.5H248v-63.1c0-1.9-1.5-3.4-3.4-3.4H173c-1.9,0-3.4,1.5-3.4,3.4v63.1h-63.2
	c-1.9,0-3.4,1.5-3.4,3.4v71.7c0,1.9,1.5,3.4,3.4,3.4h63.2v63.1c0,1.9,1.5,3.4,3.4,3.4h71.7c1.9,0,3.4-1.5,3.4-3.4V507h63.1
	c1.9,0,3.4-1.5,3.4-3.4v-71.7C314.5,430.1,312.9,428.5,311.1,428.5z"/>
<polygon id="left" fill="#414042" points="160.2,444 141.1,444 141.1,434.9 108.1,467.7 141.1,500.8 141.1,491.6 160.2,491.6 "/>
<polygon id="right" fill="#414042" points="257.3,491.6 276.4,491.6 276.4,500.8 309.4,467.7 276.4,434.9 276.4,444 257.3,444 "/>
<polygon id="up" fill="#414042" points="232.5,419.2 232.5,400 241.7,400 208.8,367.1 175.8,400 185,400 185,419.2 "/>
<polygon id="down" fill="#414042" points="185,516.2 185,535.5 175.8,535.5 208.8,568.5 241.7,535.5 232.5,535.5 232.5,516.2 "/>
<circle fill="#414042" cx="208.8" cy="467.7" r="22.8"/>
<rect x="354.5" y="246.8" fill="none" width="385.3" height="394.6"/>
<path fill="#939598" d="M716.7,285.2c0,9.4-8.3,17.1-18.5,17.1H401.6c-10.2,0-18.5-7.7-18.5-17.1V237c0-9.4,8.3-17.1,18.5-17.1
	h296.8c10.2,0,18.5,7.7,18.5,17.1v48.2H716.7z"/>
<rect x="354.5" y="246.8" fill="none" width="385.3" height="394.6"/>
<rect x="354.5" y="246.8" fill="none" width="385.3" height="394.6"/>
<path fill="#939598" d="M716.7,362.8c0,7.5-6.1,13.6-13.6,13.6H396.6c-7.5,0-13.6-6.1-13.6-13.6v-27.5c0-7.5,6.1-13.6,13.6-13.6
	h306.6c7.5,0,13.6,6.1,13.6,13.6V362.8z"/>
<rect x="354.5" y="246.8" fill="none" width="385.3" height="394.6"/>
<path fill="#939598" d="M716.7,436.1c0,7.5-6.1,13.6-13.6,13.6H396.6c-7.5,0-13.6-6.1-13.6-13.6v-27.5c0-7.5,6.1-13.6,13.6-13.6
	h306.6c7.5,0,13.6,6.1,13.6,13.6V436.1z"/>
<path fill="#BCBEC0" d="M716.7,568.6c0,7.5-6.1,13.6-13.6,13.6H396.6c-7.5,0-13.6-6.1-13.6-13.6v-85c0-7.5,6.1-13.6,13.6-13.6h306.6
	c7.5,0,13.6,6.1,13.6,13.6V568.6z"/>
<path id="select" d="M519.9,526.1c0,9.4-7.6,17-17,17h-59.2c-9.4,0-17-7.6-17-17l0,0c0-9.4,7.6-17,17-17H503
	C512.4,509.1,519.9,516.7,519.9,526.1L519.9,526.1z"/>
<path id="start" d="M676.1,526.1c0,9.4-7.6,17-17,17h-59.2c-9.4,0-17-7.6-17-17l0,0c0-9.4,7.6-17,17-17h59.2
	C668.5,509.1,676.1,516.7,676.1,526.1L676.1,526.1z"/>
<path fill="#939598" d="M716.9,659.2v-33.1c0-9.4-8.4-17.1-18.5-17.1H401.6c-10.3,0-18.5,7.7-18.5,17.1v33.1H716.9z"/>
<path fill="#BCBEC0" d="M1190.4,666.3V175.6c0-6.8-4.9-12.2-10.9-12.2H10.9c-6,0-10.9,5.4-10.9,12.2v490.6c0,6.8,4.9,12.2,10.9,12.2
	h1168.8c6,0,10.9-5.4,10.9-12.2H1190.4z M1150.2,641.4H40.2c-2.5,0-4.5-2-4.5-4.5V251.5c0-2.5,2-4.5,4.5-4.5h1109.9
	c2.5,0,4.5,2,4.5,4.5v385.4l0,0C1154.7,639.4,1152.7,641.4,1150.2,641.4z"/>
</svg>
